<?xml version="1.0" standalone="no"?>
<!DOCTYPE svg PUBLIC "-//W3C//DTD SVG 20010904//EN"
 "http://www.w3.org/TR/2001/REC-SVG-20010904/DTD/svg10.dtd">
<svg version="1.0" xmlns="http://www.w3.org/2000/svg"
 width="500.000000pt" height="500.000000pt" viewBox="0 0 500.000000 500.000000"
 preserveAspectRatio="xMidYMid meet">
<metadata>
Created by potrace 1.14, written by Peter Selinger 2001-2017
</metadata>
<g transform="translate(0.000000,500.000000) scale(0.100000,-0.100000)"
fill="#000000" stroke="none">
<path d="M2448 4638 c-79 -107 -736 -1020 -750 -1042 -38 -56 -60 -74 -100
-81 -24 -4 -50 -9 -58 -11 -13 -3 -64 -14 -235 -50 -11 -2 -29 -6 -40 -8 -11
-2 -56 -12 -100 -21 -44 -9 -89 -18 -100 -21 -11 -2 -96 -19 -188 -39 -93 -19
-183 -37 -200 -40 -18 -3 -48 -10 -67 -15 -19 -5 -48 -12 -65 -14 -16 -3 -41
-8 -55 -11 -14 -3 -36 -8 -50 -11 -37 -7 -258 -53 -311 -65 -64 -14 -81 -17
-101 -18 -26 -1 -22 -24 9 -53 16 -14 102 -103 193 -198 91 -95 188 -197 215
-225 28 -29 122 -128 210 -220 88 -92 193 -202 233 -244 l72 -76 -6 -88 c-3
-49 -7 -96 -9 -105 -1 -10 -6 -55 -10 -102 -4 -47 -9 -94 -11 -105 -2 -10 -6
-49 -9 -85 -3 -36 -8 -81 -10 -100 -2 -19 -7 -69 -10 -110 -4 -41 -8 -86 -10
-100 -2 -14 -6 -59 -10 -100 -4 -41 -8 -86 -10 -100 -2 -14 -7 -59 -10 -100
-4 -41 -9 -88 -11 -105 -2 -16 -6 -59 -9 -95 -3 -36 -10 -99 -15 -140 -5 -41
-12 -111 -15 -155 -4 -44 -8 -91 -10 -105 -2 -14 -7 -60 -11 -103 l-6 -78 58
26 c33 15 69 31 82 36 12 5 41 17 65 28 23 10 137 60 252 111 116 51 228 100
250 110 63 28 120 53 415 182 151 66 294 129 318 139 83 37 128 57 196 88 38
17 76 31 85 31 9 0 68 -23 131 -51 153 -68 727 -320 965 -424 105 -45 253
-111 330 -145 77 -34 156 -68 175 -77 33 -14 94 -41 114 -51 9 -5 3 97 -14
238 -5 41 -12 104 -15 140 -4 36 -8 83 -11 105 -2 22 -6 67 -9 100 -6 70 -11
125 -25 255 -13 129 -19 186 -25 245 -3 28 -7 73 -10 100 -6 54 -11 104 -20
205 -4 36 -8 76 -10 90 -2 14 -6 61 -10 105 -4 44 -8 87 -10 95 -2 8 -6 56 -9
105 l-7 90 78 81 c272 284 424 443 463 485 120 125 368 385 393 410 30 30 28
32 -23 42 -26 5 -156 32 -200 42 -14 3 -38 8 -55 11 -16 2 -46 9 -65 14 -19 5
-51 12 -70 15 -19 3 -42 8 -50 10 -8 2 -31 7 -50 10 -19 3 -42 8 -50 10 -14 4
-38 9 -97 20 -16 3 -68 14 -118 25 -49 11 -101 22 -115 24 -31 6 -117 23 -150
31 -14 3 -56 12 -95 20 -38 8 -79 16 -90 19 -142 30 -183 39 -200 42 -97 16
-183 39 -196 53 -10 9 -145 194 -301 411 -156 217 -319 445 -363 505 -44 61
-103 143 -132 183 l-52 73 -53 -73z m159 -915 c54 -75 116 -162 138 -193 22
-31 89 -124 149 -207 59 -83 109 -154 110 -156 1 -5 -164 -179 -416 -441 l-88
-91 -77 80 c-267 277 -425 444 -426 450 0 4 72 106 159 227 87 121 173 240
189 263 109 154 147 205 155 205 4 0 52 -62 107 -137z m1173 -788 c74 -15 157
-33 183 -39 l48 -11 -52 -55 c-60 -65 -372 -390 -411 -430 -15 -16 -26 -36
-24 -46 2 -11 7 -57 10 -104 4 -47 9 -94 11 -105 2 -11 7 -51 10 -90 3 -38 10
-110 16 -160 5 -49 11 -112 14 -140 11 -121 24 -250 30 -300 2 -22 7 -69 10
-105 3 -36 8 -78 10 -95 19 -148 17 -181 -10 -157 -6 5 -77 37 -160 73 -205
87 -248 110 -251 134 -2 11 -6 54 -10 95 -9 115 -20 224 -29 300 -2 19 -7 62
-10 95 -11 118 -17 170 -21 174 -3 3 -26 -18 -52 -46 -50 -54 -331 -349 -494
-517 l-98 -101 -97 101 c-167 172 -462 481 -503 526 -22 23 -41 40 -44 38 -2
-3 -7 -34 -10 -70 -8 -82 -15 -144 -20 -195 -3 -22 -8 -71 -11 -110 -4 -38 -8
-81 -10 -95 -4 -27 -18 -176 -18 -198 0 -19 -26 -33 -162 -92 -66 -29 -145
-63 -175 -77 -110 -50 -103 -51 -96 9 3 29 8 80 11 113 11 112 14 140 20 195
3 30 8 75 10 100 2 25 11 110 19 190 9 80 18 170 20 200 7 78 16 170 21 205 2
17 7 66 10 110 4 44 9 88 11 98 2 11 -10 33 -29 52 -242 250 -457 478 -454
481 1 1 56 14 122 28 159 33 175 36 210 42 17 3 37 7 45 10 8 3 34 8 58 11 41
5 45 3 85 -40 23 -25 116 -123 207 -218 91 -94 187 -195 213 -223 43 -45 180
-188 476 -496 l91 -95 97 101 c88 91 329 343 473 494 30 32 128 134 216 227
89 92 182 189 207 215 l44 47 54 -13 c30 -8 115 -26 189 -41z"/>
</g>
</svg>
